<svg width="22" height="23" viewBox="0 0 22 23" fill="none" xmlns="http://www.w3.org/2000/svg">
<path fill-rule="evenodd" clip-rule="evenodd" d="M-4.80825e-07 11.0091C-2.15279e-07 4.93409 4.925 0.00909445 11 0.00909472C17.075 0.00909498 22 4.9341 22 11.0091C22 17.0841 17.075 22.0091 11 22.0091C4.925 22.0091 -7.46372e-07 17.0841 -4.80825e-07 11.0091ZM7.707 8.80209C7.5184 8.61994 7.2658 8.51914 7.0036 8.52142C6.7414 8.5237 6.49059 8.62887 6.30518 8.81428C6.11977 8.99968 6.0146 9.2505 6.01233 9.51269C6.01005 9.77489 6.11084 10.0275 6.293 10.2161L10.293 14.2161C10.4805 14.4036 10.7348 14.5089 11 14.5089C11.2652 14.5089 11.5195 14.4036 11.707 14.2161L15.707 10.2161C15.8892 10.0275 15.99 9.77489 15.9877 9.51269C15.9854 9.2505 15.8802 8.99968 15.6948 8.81428C15.5094 8.62887 15.2586 8.5237 14.9964 8.52142C14.7342 8.51914 14.4816 8.61994 14.293 8.8021L11 12.0951L7.707 8.80209Z" fill="white"/>
</svg>
