<svg width="33" height="33" viewBox="0 0 33 33" fill="none" xmlns="http://www.w3.org/2000/svg">
<path d="M20.8814 10.0095L10.4689 20.597C10.1242 20.9775 9.93897 21.4759 9.9516 21.9892C9.96424 22.5024 10.1738 22.9911 10.5368 23.3542C10.8998 23.7172 11.3885 23.9267 11.9018 23.9393C12.415 23.952 12.9135 23.7668 13.2939 23.4221L25.7064 10.8345C26.3958 10.0737 26.7663 9.07676 26.741 8.05029C26.7157 7.02381 26.2967 6.04636 25.5706 5.32032C24.8446 4.59427 23.8671 4.17523 22.8407 4.14996C21.8142 4.12468 20.8173 4.49511 20.0564 5.18455L7.6439 17.7721C6.52005 18.8959 5.88867 20.4202 5.88867 22.0096C5.88867 23.5989 6.52005 25.1232 7.6439 26.247C8.76776 27.3709 10.292 28.0023 11.8814 28.0023C13.4708 28.0023 14.995 27.3709 16.1189 26.247L26.3814 16.0096" stroke="#05B050" stroke-width="1.5" stroke-linecap="round" stroke-linejoin="round"/>
</svg>
