<svg width="24" height="27" viewBox="0 0 24 27" fill="none" xmlns="http://www.w3.org/2000/svg">
<path d="M3.74835 10.1401C3.74675 9.00203 3.97034 7.87485 4.40622 6.82353C4.84211 5.7722 5.48169 4.8175 6.28812 4.01441C7.09456 3.21132 8.05191 2.57572 9.10504 2.14421C10.1582 1.71269 11.2863 1.4938 12.4244 1.50013C17.1764 1.53613 20.9804 5.48413 20.9804 10.2481V11.1001C20.9804 15.3961 21.8804 17.8921 22.6724 19.2601C22.7565 19.4058 22.8008 19.5711 22.801 19.7393C22.8011 19.9075 22.7571 20.0728 22.6732 20.2187C22.5893 20.3645 22.4686 20.4858 22.3232 20.5703C22.1777 20.6548 22.0126 20.6995 21.8444 20.7001H2.88435C2.71613 20.6995 2.55101 20.6548 2.40554 20.5703C2.26007 20.4858 2.13936 20.3645 2.0555 20.2187C1.97165 20.0728 1.92759 19.9075 1.92773 19.7393C1.92788 19.5711 1.97224 19.4058 2.05635 19.2601C2.84835 17.8921 3.74835 15.3961 3.74835 11.1001V10.1401Z" stroke="#96949C" stroke-width="2" stroke-linecap="round" stroke-linejoin="round"/>
<path d="M8.52441 20.6992V21.6592C8.52441 22.6777 8.92898 23.6544 9.64912 24.3745C10.3693 25.0946 11.346 25.4992 12.3644 25.4992C13.3828 25.4992 14.3596 25.0946 15.0797 24.3745C15.7998 23.6544 16.2044 22.6777 16.2044 21.6592V20.6992" stroke="#96949C" stroke-width="2" stroke-linecap="round" stroke-linejoin="round"/>
</svg>
