<svg width="33" height="33" viewBox="0 0 33 33" fill="none" xmlns="http://www.w3.org/2000/svg">
<path d="M7.44335 13.6665C7.44169 12.481 7.67458 11.3069 8.12863 10.2117C8.58268 9.11659 9.24891 8.12211 10.0889 7.28556C10.929 6.44901 11.9262 5.78692 13.0232 5.33743C14.1202 4.88794 15.2953 4.65992 16.4809 4.66652C21.4309 4.70402 25.3934 8.81652 25.3934 13.779V14.6665C25.3934 19.1415 26.3309 21.7415 27.1559 23.1665C27.2435 23.3183 27.2897 23.4904 27.2898 23.6656C27.29 23.8409 27.2441 24.0131 27.1567 24.165C27.0694 24.3169 26.9436 24.4432 26.7921 24.5312C26.6406 24.6192 26.4686 24.6659 26.2934 24.6665H6.54335C6.36812 24.6659 6.19612 24.6192 6.04459 24.5312C5.89306 24.4432 5.76732 24.3169 5.67997 24.165C5.59262 24.0131 5.54672 23.8409 5.54688 23.6656C5.54703 23.4904 5.59323 23.3183 5.68085 23.1665C6.50585 21.7415 7.44335 19.1415 7.44335 14.6665V13.6665Z" stroke="#4A4754" stroke-width="1.5" stroke-linecap="round" stroke-linejoin="round"/>
<path d="M12.418 24.6666V25.6666C12.418 26.7275 12.8394 27.7449 13.5895 28.4951C14.3397 29.2452 15.3571 29.6666 16.418 29.6666C17.4788 29.6666 18.4962 29.2452 19.2464 28.4951C19.9965 27.7449 20.418 26.7275 20.418 25.6666V24.6666" stroke="#4A4754" stroke-width="1.5" stroke-linecap="round" stroke-linejoin="round"/>
</svg>
