<svg width="33" height="33" viewBox="0 0 33 33" fill="none" xmlns="http://www.w3.org/2000/svg">
<path d="M10.418 29.6666C11.5225 29.6666 12.418 28.7712 12.418 27.6666C12.418 26.5621 11.5225 25.6666 10.418 25.6666C9.3134 25.6666 8.41797 26.5621 8.41797 27.6666C8.41797 28.7712 9.3134 29.6666 10.418 29.6666Z" fill="#4A4754"/>
<path d="M23.418 29.6666C24.5225 29.6666 25.418 28.7712 25.418 27.6666C25.418 26.5621 24.5225 25.6666 23.418 25.6666C22.3134 25.6666 21.418 26.5621 21.418 27.6666C21.418 28.7712 22.3134 29.6666 23.418 29.6666Z" fill="#4A4754"/>
<path d="M5.70547 9.66663H28.1305L24.8305 21.2166C24.7127 21.6358 24.4606 22.0047 24.1128 22.2667C23.765 22.5286 23.3409 22.6692 22.9055 22.6666H10.9305C10.4951 22.6692 10.0709 22.5286 9.72312 22.2667C9.37534 22.0047 9.12321 21.6358 9.00547 21.2166L4.48047 5.39163C4.42067 5.18257 4.29436 4.9987 4.12068 4.86787C3.947 4.73705 3.73541 4.6664 3.51797 4.66663H1.41797" stroke="#4A4754" stroke-width="2" stroke-linecap="round" stroke-linejoin="round"/>
</svg>
