<svg width="24" height="23" viewBox="0 0 24 23" fill="none" xmlns="http://www.w3.org/2000/svg">
<rect width="24" height="23" rx="6" fill="#05B050"/>
<rect x="6" y="6" width="13" height="10" fill="#D9D9D9"/>
<path d="M18.5107 5.49279C17.3226 4.30314 15.8083 3.4927 14.1596 3.16399C12.5108 2.83528 10.8016 3.00308 9.24823 3.64616C7.69484 4.28924 6.36706 5.3787 5.43285 6.77672C4.49865 8.17473 4 9.81847 4 11.5C4 13.1815 4.49865 14.8253 5.43285 16.2233C6.36706 17.6213 7.69484 18.7108 9.24823 19.3538C10.8016 19.9969 12.5108 20.1647 14.1596 19.836C15.8083 19.5073 17.3226 18.6969 18.5107 17.5072C19.2999 16.7186 19.9259 15.7821 20.353 14.7514C20.7802 13.7206 21 12.6158 21 11.5C21 10.3842 20.7802 9.27938 20.353 8.24863C19.9259 7.21788 19.2999 6.28142 18.5107 5.49279ZM11.663 13.6495C11.7858 13.7735 11.8547 13.9409 11.8547 14.1154C11.8547 14.2899 11.7858 14.4573 11.663 14.5812C11.5381 14.7021 11.3711 14.7696 11.1973 14.7696C11.0235 14.7696 10.8564 14.7021 10.7315 14.5812L8.11663 11.9659C7.99387 11.8419 7.92501 11.6745 7.92501 11.5C7.92501 11.3255 7.99387 11.1581 8.11663 11.0341L10.7315 8.41875C10.8585 8.31449 11.0198 8.2612 11.1839 8.26927C11.348 8.27733 11.5032 8.34616 11.6194 8.46237C11.7356 8.57858 11.8044 8.73386 11.8125 8.89801C11.8206 9.06216 11.7673 9.22344 11.663 9.35048L9.50578 11.5L11.663 13.6495ZM16.239 13.6495C16.3618 13.7735 16.4307 13.9409 16.4307 14.1154C16.4307 14.2899 16.3618 14.4573 16.239 14.5812C16.1141 14.7021 15.9471 14.7696 15.7733 14.7696C15.5995 14.7696 15.4325 14.7021 15.3075 14.5812L12.6926 11.9659C12.5699 11.8419 12.501 11.6745 12.501 11.5C12.501 11.3255 12.5699 11.1581 12.6926 11.0341L15.3075 8.41875C15.4345 8.31449 15.5958 8.2612 15.7599 8.26927C15.924 8.27733 16.0793 8.34616 16.1954 8.46237C16.3116 8.57858 16.3804 8.73386 16.3885 8.89801C16.3966 9.06216 16.3433 9.22344 16.239 9.35048L14.0818 11.5L16.239 13.6495Z" fill="#05B050"/>
</svg>
