<svg width="232" height="166" viewBox="0 0 232 166" fill="none" xmlns="http://www.w3.org/2000/svg">
<circle cx="229.275" cy="2.72388" r="2.72388" transform="rotate(90 229.275 2.72388)" fill="#00B050"/>
<circle cx="229.275" cy="42.6741" r="2.72388" transform="rotate(90 229.275 42.6741)" fill="#00B050"/>
<circle cx="229.275" cy="82.6243" r="2.72388" transform="rotate(90 229.275 82.6243)" fill="#00B050"/>
<circle cx="229.275" cy="122.574" r="2.72388" transform="rotate(90 229.275 122.574)" fill="#00B050"/>
<circle cx="229.275" cy="162.525" r="2.72388" transform="rotate(90 229.275 162.525)" fill="#00B050"/>
<circle cx="189.325" cy="2.72388" r="2.72388" transform="rotate(90 189.325 2.72388)" fill="#00B050"/>
<circle cx="189.325" cy="42.6741" r="2.72388" transform="rotate(90 189.325 42.6741)" fill="#00B050"/>
<circle cx="189.325" cy="82.6243" r="2.72388" transform="rotate(90 189.325 82.6243)" fill="#00B050"/>
<circle cx="189.325" cy="122.574" r="2.72388" transform="rotate(90 189.325 122.574)" fill="#00B050"/>
<circle cx="189.325" cy="162.525" r="2.72388" transform="rotate(90 189.325 162.525)" fill="#00B050"/>
<circle cx="149.375" cy="2.72388" r="2.72388" transform="rotate(90 149.375 2.72388)" fill="#00B050"/>
<circle cx="149.375" cy="42.6741" r="2.72388" transform="rotate(90 149.375 42.6741)" fill="#00B050"/>
<circle cx="149.375" cy="82.6243" r="2.72388" transform="rotate(90 149.375 82.6243)" fill="#00B050"/>
<circle cx="149.375" cy="122.574" r="2.72388" transform="rotate(90 149.375 122.574)" fill="#00B050"/>
<circle cx="149.375" cy="162.525" r="2.72388" transform="rotate(90 149.375 162.525)" fill="#00B050"/>
<circle cx="109.425" cy="2.72388" r="2.72388" transform="rotate(90 109.425 2.72388)" fill="#00B050"/>
<circle cx="109.425" cy="42.6741" r="2.72388" transform="rotate(90 109.425 42.6741)" fill="#00B050"/>
<circle cx="109.425" cy="82.6243" r="2.72388" transform="rotate(90 109.425 82.6243)" fill="#00B050"/>
<circle cx="109.425" cy="122.574" r="2.72388" transform="rotate(90 109.425 122.574)" fill="#00B050"/>
<circle cx="109.425" cy="162.525" r="2.72388" transform="rotate(90 109.425 162.525)" fill="#00B050"/>
<circle cx="69.4744" cy="2.72388" r="2.72388" transform="rotate(90 69.4744 2.72388)" fill="#00B050"/>
<circle cx="69.4744" cy="42.6741" r="2.72388" transform="rotate(90 69.4744 42.6741)" fill="#00B050"/>
<circle cx="69.4744" cy="82.6243" r="2.72388" transform="rotate(90 69.4744 82.6243)" fill="#00B050"/>
<circle cx="69.4744" cy="122.574" r="2.72388" transform="rotate(90 69.4744 122.574)" fill="#00B050"/>
<circle cx="69.4744" cy="162.525" r="2.72388" transform="rotate(90 69.4744 162.525)" fill="#00B050"/>
<circle cx="29.5242" cy="2.72388" r="2.72388" transform="rotate(90 29.5242 2.72388)" fill="#00B050"/>
<circle cx="29.5242" cy="42.6741" r="2.72388" transform="rotate(90 29.5242 42.6741)" fill="#00B050"/>
<circle cx="29.5242" cy="82.6243" r="2.72388" transform="rotate(90 29.5242 82.6243)" fill="#00B050"/>
<circle cx="29.5242" cy="122.574" r="2.72388" transform="rotate(90 29.5242 122.574)" fill="#00B050"/>
<circle cx="29.5242" cy="162.525" r="2.72388" transform="rotate(90 29.5242 162.525)" fill="#00B050"/>
</svg>
