<svg width="33" height="33" viewBox="0 0 33 33" fill="none" xmlns="http://www.w3.org/2000/svg">
<path d="M16.8809 28.0091C23.5083 28.0091 28.8809 22.6365 28.8809 16.0091C28.8809 9.38168 23.5083 4.00909 16.8809 4.00909C10.2534 4.00909 4.88086 9.38168 4.88086 16.0091C4.88086 22.6365 10.2534 28.0091 16.8809 28.0091Z" stroke="#05B050" stroke-width="1.5" stroke-linecap="round" stroke-linejoin="round"/>
<path d="M12.3809 14.7591C13.0712 14.7591 13.6309 14.1995 13.6309 13.5091C13.6309 12.8187 13.0712 12.2591 12.3809 12.2591C11.6905 12.2591 11.1309 12.8187 11.1309 13.5091C11.1309 14.1995 11.6905 14.7591 12.3809 14.7591Z" fill="#05B050"/>
<path d="M21.3809 14.7591C22.0712 14.7591 22.6309 14.1995 22.6309 13.5091C22.6309 12.8187 22.0712 12.2591 21.3809 12.2591C20.6905 12.2591 20.1309 12.8187 20.1309 13.5091C20.1309 14.1995 20.6905 14.7591 21.3809 14.7591Z" fill="#05B050"/>
<path d="M22.0816 19.0091C21.553 19.9198 20.7944 20.6758 19.8819 21.2012C18.9693 21.7267 17.9347 22.0033 16.8816 22.0033C15.8286 22.0033 14.794 21.7267 13.8814 21.2012C12.9688 20.6758 12.2103 19.9198 11.6816 19.0091" stroke="#05B050" stroke-width="1.5" stroke-linecap="round" stroke-linejoin="round"/>
</svg>
