<svg width="8" height="14" viewBox="0 0 8 14" fill="none" xmlns="http://www.w3.org/2000/svg">
<path d="M8 0.693386C8 0.597645 7.96169 0.505826 7.89349 0.438126C7.8253 0.370427 7.73281 0.332394 7.63636 0.332394H5.81818C4.90264 0.287119 4.00625 0.603421 3.32489 1.21219C2.64352 1.82096 2.23257 2.67271 2.18182 3.58133V5.53069H0.363636C0.267194 5.53069 0.174702 5.56872 0.106507 5.63642C0.0383116 5.70412 0 5.79594 0 5.89168V7.76884C0 7.86458 0.0383116 7.9564 0.106507 8.0241C0.174702 8.0918 0.267194 8.12983 0.363636 8.12983H2.18182V12.9671C2.18182 13.0629 2.22013 13.1547 2.28832 13.2224C2.35652 13.2901 2.44901 13.3281 2.54545 13.3281H4.72727C4.82372 13.3281 4.91621 13.2901 4.9844 13.2224C5.0526 13.1547 5.09091 13.0629 5.09091 12.9671V8.12983H6.99636C7.07723 8.13099 7.15617 8.10534 7.22072 8.05696C7.28526 8.00858 7.33171 7.94023 7.35273 7.8627L7.87636 5.98554C7.89083 5.9322 7.89278 5.87627 7.88205 5.82207C7.87132 5.76787 7.8482 5.71684 7.81448 5.6729C7.78076 5.62896 7.73733 5.59329 7.68754 5.56863C7.63774 5.54398 7.58292 5.531 7.52727 5.53069H5.09091V3.58133C5.109 3.40262 5.19354 3.23702 5.32802 3.11687C5.4625 2.99672 5.63726 2.93064 5.81818 2.93154H7.63636C7.73281 2.93154 7.8253 2.89351 7.89349 2.82581C7.96169 2.75811 8 2.66629 8 2.57055V0.693386Z" fill="#868B9D"/>
</svg>
