<svg width="22" height="20" viewBox="0 0 22 20" fill="none" xmlns="http://www.w3.org/2000/svg">
<path d="M18.3598 16.25H3.79284C3.71309 16.25 3.63412 16.235 3.56044 16.206C3.48676 16.1769 3.41981 16.1344 3.36342 16.0807C3.30703 16.027 3.26229 15.9633 3.23177 15.8931C3.20125 15.823 3.18555 15.7478 3.18555 15.6719V6.25H18.2859C18.46 6.25 18.627 6.31585 18.7501 6.43306C18.8733 6.55027 18.9424 6.70924 18.9424 6.875V15.6953C18.9424 15.8424 18.881 15.9835 18.7718 16.0875C18.6625 16.1916 18.5143 16.25 18.3598 16.25Z" stroke="white" stroke-width="1.5" stroke-linecap="round" stroke-linejoin="round"/>
<path d="M3.18555 6.25V4.375C3.18555 4.20924 3.25472 4.05027 3.37784 3.93306C3.50097 3.81585 3.66796 3.75 3.84208 3.75H8.16702C8.25227 3.74972 8.33674 3.76544 8.4156 3.79628C8.49447 3.82711 8.56616 3.87245 8.6266 3.92969L11.064 6.25" stroke="white" stroke-width="1.5" stroke-linecap="round" stroke-linejoin="round"/>
</svg>
