<svg width="28" height="27" viewBox="0 0 28 27" fill="none" xmlns="http://www.w3.org/2000/svg">
<path d="M14.4002 19.3121C17.6103 19.3121 20.2125 16.7099 20.2125 13.4998C20.2125 10.2898 17.6103 7.6875 14.4002 7.6875C11.1902 7.6875 8.58789 10.2898 8.58789 13.4998C8.58789 16.7099 11.1902 19.3121 14.4002 19.3121Z" stroke="#96949C" stroke-width="2" stroke-linecap="round" stroke-linejoin="round"/>
<path d="M22.8039 7.77245C23.0955 8.18981 23.3507 8.63139 23.5668 9.09233L26.703 10.836C27.0946 12.59 27.0988 14.4083 26.7151 16.164L23.5668 17.9077C23.3507 18.3686 23.0955 18.8102 22.8039 19.2275L22.8645 22.8239C21.5353 24.0351 19.9622 24.9476 18.251 25.5L15.1632 23.6473C14.6552 23.6837 14.1454 23.6837 13.6374 23.6473L10.5618 25.4879C8.84508 24.9455 7.26678 24.0366 5.93613 22.8239L5.99667 19.2397C5.7076 18.8165 5.45251 18.3711 5.23381 17.9077L2.09758 16.164C1.70597 14.41 1.70184 12.5917 2.08547 10.836L5.23381 9.09233C5.44993 8.63139 5.70515 8.18981 5.99667 7.77245L5.93613 4.17608C7.26527 2.9649 8.83838 2.05241 10.5496 1.5L13.6374 3.35267C14.1454 3.31634 14.6552 3.31634 15.1632 3.35267L18.2389 1.51211C19.9555 2.05447 21.5338 2.96343 22.8645 4.17608L22.8039 7.77245Z" stroke="#96949C" stroke-width="2" stroke-linecap="round" stroke-linejoin="round"/>
</svg>
