<svg width="25" height="25" viewBox="0 0 25 25" fill="none" xmlns="http://www.w3.org/2000/svg">
<path d="M15.418 22.6668V16.6668C15.418 16.4016 15.3126 16.1472 15.1251 15.9597C14.9375 15.7721 14.6832 15.6668 14.418 15.6668H10.418C10.1528 15.6668 9.8984 15.7721 9.71086 15.9597C9.52333 16.1472 9.41797 16.4016 9.41797 16.6668V22.6668C9.41797 22.932 9.31261 23.1863 9.12508 23.3739C8.93754 23.5614 8.68319 23.6668 8.41797 23.6668H2.41797C2.15275 23.6668 1.8984 23.5614 1.71086 23.3739C1.52333 23.1863 1.41797 22.932 1.41797 22.6668V11.1043C1.42021 10.9659 1.45012 10.8293 1.50593 10.7027C1.56175 10.576 1.64234 10.4618 1.74297 10.3668L11.743 1.27927C11.9273 1.11062 12.1681 1.01709 12.418 1.01709C12.6678 1.01709 12.9086 1.11062 13.093 1.27927L23.093 10.3668C23.1936 10.4618 23.2742 10.576 23.33 10.7027C23.3858 10.8293 23.4157 10.9659 23.418 11.1043V22.6668C23.418 22.932 23.3126 23.1863 23.1251 23.3739C22.9375 23.5614 22.6832 23.6668 22.418 23.6668H16.418C16.1528 23.6668 15.8984 23.5614 15.7109 23.3739C15.5233 23.1863 15.418 22.932 15.418 22.6668Z" stroke="#4A4754" stroke-width="1.5" stroke-linecap="round" stroke-linejoin="round"/>
</svg>
