<svg width="42" height="42" viewBox="0 0 42 42" fill="none" xmlns="http://www.w3.org/2000/svg">
<path d="M0.455078 41.4199V0.580078H41.2949V41.4199H0.455078Z" stroke="#EDEDEE" stroke-width="0.160156" stroke-linecap="round"/>
<path d="M34.9688 8.1875H6.78125C6.07364 8.1875 5.5 8.76114 5.5 9.46875V32.5312C5.5 33.2389 6.07364 33.8125 6.78125 33.8125H34.9688C35.6764 33.8125 36.25 33.2389 36.25 32.5312V9.46875C36.25 8.76114 35.6764 8.1875 34.9688 8.1875Z" stroke="#EDEDEE" stroke-width="2.5625" stroke-linecap="round" stroke-linejoin="round"/>
<path d="M5.5 27.4068L13.5559 19.351C13.6751 19.2299 13.8172 19.1338 13.9739 19.0682C14.1306 19.0025 14.2988 18.9688 14.4688 18.9688C14.6387 18.9688 14.8069 19.0025 14.9636 19.0682C15.1203 19.1338 15.2624 19.2299 15.3816 19.351L22.5246 26.494C22.6438 26.615 22.7859 26.7111 22.9427 26.7768C23.0994 26.8424 23.2676 26.8762 23.4375 26.8762C23.6074 26.8762 23.7756 26.8424 23.9323 26.7768C24.0891 26.7111 24.2312 26.615 24.3504 26.494L27.6496 23.1947C27.7688 23.0737 27.9109 22.9775 28.0677 22.9119C28.2244 22.8463 28.3926 22.8125 28.5625 22.8125C28.7324 22.8125 28.9006 22.8463 29.0573 22.9119C29.2141 22.9775 29.3562 23.0737 29.4754 23.1947L36.25 29.9693" stroke="#EDEDEE" stroke-width="2.5625" stroke-linecap="round" stroke-linejoin="round"/>
<path d="M27.2012 16.5156C27.2012 17.5328 26.3766 18.3574 25.3594 18.3574C24.3422 18.3574 23.5176 17.5328 23.5176 16.5156C23.5176 15.4984 24.3422 14.6738 25.3594 14.6738C26.3766 14.6738 27.2012 15.4984 27.2012 16.5156Z" fill="#EDEDEE" stroke="#EDEDEE" stroke-width="0.160156" stroke-linecap="round"/>
</svg>
