<svg width="13" height="14" viewBox="0 0 13 14" fill="none" xmlns="http://www.w3.org/2000/svg">
<path d="M6.49825 4.66054C5.30472 4.66054 4.3307 5.63457 4.3307 6.82812C4.3307 8.02168 5.30472 8.99571 6.49825 8.99571C7.69179 8.99571 8.6658 8.02168 8.6658 6.82812C8.6658 5.63457 7.69179 4.66054 6.49825 4.66054ZM12.9993 6.82812C12.9993 5.93052 13.0074 5.04104 12.957 4.14506C12.9066 3.10436 12.6692 2.18073 11.9082 1.41972C11.1456 0.65708 10.2236 0.421296 9.18289 0.370887C8.2853 0.320478 7.39584 0.328609 6.49988 0.328609C5.60229 0.328609 4.71283 0.320478 3.81687 0.370887C2.77618 0.421296 1.85258 0.658707 1.09158 1.41972C0.328949 2.18236 0.0931695 3.10436 0.0427614 4.14506C-0.0076467 5.04267 0.000483665 5.93214 0.000483665 6.82812C0.000483665 7.72411 -0.0076467 8.61521 0.0427614 9.51119C0.0931695 10.5519 0.330576 11.4755 1.09158 12.2365C1.8542 12.9992 2.77618 13.235 3.81687 13.2854C4.71446 13.3358 5.60391 13.3276 6.49988 13.3276C7.39747 13.3276 8.28693 13.3358 9.18289 13.2854C10.2236 13.235 11.1472 12.9975 11.9082 12.2365C12.6708 11.4739 12.9066 10.5519 12.957 9.51119C13.009 8.61521 12.9993 7.72573 12.9993 6.82812ZM6.49825 10.1633C4.65267 10.1633 3.16319 8.67375 3.16319 6.82812C3.16319 4.9825 4.65267 3.493 6.49825 3.493C8.34384 3.493 9.83332 4.9825 9.83332 6.82812C9.83332 8.67375 8.34384 10.1633 6.49825 10.1633ZM9.96991 4.13531C9.539 4.13531 9.19102 3.78732 9.19102 3.3564C9.19102 2.92549 9.539 2.5775 9.96991 2.5775C10.4008 2.5775 10.7488 2.92549 10.7488 3.3564C10.7489 3.45873 10.7289 3.56007 10.6898 3.65463C10.6507 3.74919 10.5933 3.8351 10.521 3.90746C10.4486 3.97981 10.3627 4.03718 10.2681 4.07628C10.1736 4.11538 10.0722 4.13543 9.96991 4.13531Z" fill="#868B9D"/>
</svg>
