<svg width="13" height="14" viewBox="0 0 13 14" fill="none" xmlns="http://www.w3.org/2000/svg">
<path d="M1.36842 3.06497C2.12418 3.06497 2.73684 2.4523 2.73684 1.69655C2.73684 0.940788 2.12418 0.328125 1.36842 0.328125C0.612663 0.328125 0 0.940788 0 1.69655C0 2.4523 0.612663 3.06497 1.36842 3.06497Z" fill="#868B9D"/>
<path d="M0 5.11719H2.73684V13.6698H0V5.11719ZM5.47368 8.36719V13.6698H7.86842V8.88035C7.86842 8.02508 8.38158 7.34087 9.23684 7.34087C10.0921 7.34087 10.6053 8.19614 10.6053 8.88035V13.6698H13V8.36719C13 7.34087 11.8026 5.11719 9.23684 5.11719C6.67105 5.11719 5.47368 7.34087 5.47368 8.36719Z" fill="#868B9D"/>
</svg>
