<svg width="33" height="33" viewBox="0 0 33 33" fill="none" xmlns="http://www.w3.org/2000/svg">
<path d="M0.480469 32.6041V0.729126H32.3555V32.6041H0.480469Z" stroke="#F1F1F1" stroke-width="0.125"/>
<path d="M10.168 25.8291L6.05547 29.2791C5.90978 29.3997 5.7329 29.4765 5.54534 29.5006C5.35778 29.5246 5.16724 29.4951 4.99581 29.4152C4.82438 29.3354 4.67911 29.2086 4.57683 29.0496C4.47455 28.8905 4.41947 28.7057 4.41797 28.5166V8.66663C4.41797 8.40141 4.52333 8.14706 4.71086 7.95952C4.8984 7.77198 5.15275 7.66663 5.41797 7.66663H27.418C27.6832 7.66663 27.9375 7.77198 28.1251 7.95952C28.3126 8.14706 28.418 8.40141 28.418 8.66663V24.6666C28.418 24.9318 28.3126 25.1862 28.1251 25.3737C27.9375 25.5613 27.6832 25.6666 27.418 25.6666H10.6305L10.168 25.8291Z" stroke="#4A4754" stroke-width="1.5" stroke-linecap="round" stroke-linejoin="round"/>
<path d="M12.418 14.6666H20.418" stroke="#4A4754" stroke-width="1.5" stroke-linecap="round" stroke-linejoin="round"/>
<path d="M12.418 18.6666H20.418" stroke="#4A4754" stroke-width="1.5" stroke-linecap="round" stroke-linejoin="round"/>
</svg>
