<svg width="16" height="20" viewBox="0 0 16 20" fill="none" xmlns="http://www.w3.org/2000/svg">
<path d="M13.2 2.9951H2.8C2.02404 2.9951 1.395 3.62414 1.395 4.4001V17.2001C1.395 17.9761 2.02404 18.6051 2.8 18.6051H13.2C13.976 18.6051 14.605 17.9761 14.605 17.2001V4.4001C14.605 3.62414 13.976 2.9951 13.2 2.9951Z" stroke="white" stroke-width="1.21" stroke-linejoin="round"/>
<mask id="path-2-outside-1_2925_91129" maskUnits="userSpaceOnUse" x="2.80078" y="0" width="10" height="16" fill="black">
<rect fill="white" x="2.80078" width="10" height="16"/>
<path d="M5.60078 2V4.4ZM10.4008 2V4.4ZM4.80078 8H11.2008ZM4.80078 11.2H9.60078ZM4.80078 14.4H8.00078Z"/>
</mask>
<path d="M6.81078 2C6.81078 1.33174 6.26905 0.79 5.60078 0.79C4.93252 0.79 4.39078 1.33174 4.39078 2H6.81078ZM4.39078 4.4C4.39078 5.06826 4.93252 5.61 5.60078 5.61C6.26905 5.61 6.81078 5.06826 6.81078 4.4H4.39078ZM11.6108 2C11.6108 1.33174 11.069 0.79 10.4008 0.79C9.73252 0.79 9.19078 1.33174 9.19078 2H11.6108ZM9.19078 4.4C9.19078 5.06826 9.73252 5.61 10.4008 5.61C11.069 5.61 11.6108 5.06826 11.6108 4.4H9.19078ZM4.80078 6.79C4.13252 6.79 3.59078 7.33173 3.59078 8C3.59078 8.66826 4.13252 9.21 4.80078 9.21V6.79ZM11.2008 9.21C11.869 9.21 12.4108 8.66826 12.4108 8C12.4108 7.33173 11.869 6.79 11.2008 6.79V9.21ZM4.80078 9.99C4.13252 9.99 3.59078 10.5317 3.59078 11.2C3.59078 11.8683 4.13252 12.41 4.80078 12.41V9.99ZM9.60078 12.41C10.269 12.41 10.8108 11.8683 10.8108 11.2C10.8108 10.5317 10.269 9.99 9.60078 9.99V12.41ZM4.80078 13.19C4.13252 13.19 3.59078 13.7317 3.59078 14.4C3.59078 15.0683 4.13252 15.61 4.80078 15.61V13.19ZM8.00078 15.61C8.66905 15.61 9.21078 15.0683 9.21078 14.4C9.21078 13.7317 8.66905 13.19 8.00078 13.19V15.61ZM4.39078 2V4.4H6.81078V2H4.39078ZM9.19078 2V4.4H11.6108V2H9.19078ZM4.80078 9.21H11.2008V6.79H4.80078V9.21ZM4.80078 12.41H9.60078V9.99H4.80078V12.41ZM4.80078 15.61H8.00078V13.19H4.80078V15.61Z" fill="white" mask="url(#path-2-outside-1_2925_91129)"/>
</svg>
