<svg width="25" height="24" viewBox="0 0 25 24" fill="none" xmlns="http://www.w3.org/2000/svg">
<path d="M15.1221 7.50108L7.31274 15.4417C7.0542 15.727 6.91529 16.1009 6.92476 16.4858C6.93424 16.8707 7.09138 17.2373 7.36365 17.5095C7.63592 17.7818 8.00246 17.9389 8.38739 17.9484C8.77232 17.9579 9.14615 17.819 9.43149 17.5605L18.7409 8.11983C19.2579 7.54915 19.5358 6.80149 19.5168 6.03163C19.4979 5.26177 19.1836 4.52869 18.639 3.98415C18.0945 3.43961 17.3614 3.12533 16.5916 3.10638C15.8217 3.08742 15.074 3.36525 14.5034 3.88232L5.19399 13.323C4.35109 14.1658 3.87756 15.3091 3.87756 16.5011C3.87756 17.6931 4.35109 18.8363 5.19399 19.6792C6.03688 20.5221 7.18008 20.9956 8.37211 20.9956C9.56414 20.9956 10.7073 20.5221 11.5502 19.6792L19.2471 12.0011" stroke="#FBC52B" stroke-width="1.5" stroke-linecap="round" stroke-linejoin="round"/>
</svg>
