<svg width="29" height="28" viewBox="0 0 29 28" fill="none" xmlns="http://www.w3.org/2000/svg">
<path d="M28.0822 2.96004L21.5322 26.1975C21.4229 26.591 21.1952 26.9413 20.8798 27.2007C20.5644 27.4602 20.1768 27.6162 19.7697 27.6475H19.5947C19.218 27.6467 18.8492 27.5395 18.5307 27.3382C18.2123 27.137 17.9571 26.8499 17.7947 26.51L13.3322 17.085C13.2884 16.9904 13.2745 16.8847 13.2923 16.7819C13.3102 16.6792 13.359 16.5843 13.4322 16.51L19.8447 10.0975C19.9451 10.0066 20.0259 9.89617 20.0823 9.77302C20.1388 9.64986 20.1696 9.51653 20.1729 9.3811C20.1763 9.24568 20.152 9.11099 20.1017 8.9852C20.0514 8.85942 19.9761 8.74517 19.8803 8.64938C19.7845 8.55359 19.6703 8.47826 19.5445 8.42797C19.4187 8.37767 19.284 8.35346 19.1486 8.35679C19.0132 8.36013 18.8798 8.39094 18.7567 8.44737C18.6335 8.50379 18.5231 8.58465 18.4322 8.68504L12.0197 15.11C11.9454 15.1832 11.8505 15.232 11.7478 15.2499C11.6451 15.2677 11.5393 15.2538 11.4447 15.21L2.06967 10.7725C1.70274 10.5992 1.39468 10.3221 1.18362 9.97554C0.972552 9.62895 0.867747 9.22808 0.882171 8.82254C0.904297 8.40498 1.05755 8.00504 1.32013 7.67963C1.5827 7.35421 1.94122 7.1199 2.34467 7.01004L25.6322 0.447537C26.0395 0.331217 26.4732 0.347221 26.8708 0.493242C27.2685 0.639263 27.6094 0.90776 27.8447 1.26004C28.0025 1.51037 28.1053 1.79141 28.1462 2.0845C28.1872 2.37758 28.1653 2.67603 28.0822 2.96004Z" fill="#05B050"/>
</svg>
