<svg width="28" height="33" viewBox="0 0 28 33" fill="none" xmlns="http://www.w3.org/2000/svg">
<path d="M3.5 20.9395C3.5 21.4036 3.31563 21.8487 2.98744 22.1769C2.65925 22.5051 2.21413 22.6895 1.75 22.6895C1.28587 22.6895 0.840752 22.5051 0.512563 22.1769C0.184375 21.8487 0 21.4036 0 20.9395V13.0645C0 12.6003 0.184375 12.1552 0.512563 11.827C0.840752 11.4988 1.28587 11.3145 1.75 11.3145C2.21413 11.3145 2.65925 11.4988 2.98744 11.827C3.31563 12.1552 3.5 12.6003 3.5 13.0645V20.9395ZM28 20.9395C28 21.4036 27.8156 21.8487 27.4874 22.1769C27.1593 22.5051 26.7141 22.6895 26.25 22.6895C25.7859 22.6895 25.3407 22.5051 25.0126 22.1769C24.6844 21.8487 24.5 21.4036 24.5 20.9395V13.0645C24.5 12.6003 24.6844 12.1552 25.0126 11.827C25.3407 11.4988 25.7859 11.3145 26.25 11.3145C26.7141 11.3145 27.1593 11.4988 27.4874 11.827C27.8156 12.1552 28 12.6003 28 13.0645V20.9395ZM12.25 30.5636C12.25 31.0277 12.0656 31.4728 11.7374 31.801C11.4092 32.1292 10.9641 32.3136 10.5 32.3136C10.0359 32.3136 9.59075 32.1292 9.26256 31.801C8.93437 31.4728 8.75 31.0277 8.75 30.5636V22.6886C8.75 22.2245 8.93437 21.7793 9.26256 21.4511C9.59075 21.123 10.0359 20.9386 10.5 20.9386C10.9641 20.9386 11.4092 21.123 11.7374 21.4511C12.0656 21.7793 12.25 22.2245 12.25 22.6886V30.5636ZM19.25 30.5636C19.25 31.0277 19.0656 31.4728 18.7374 31.801C18.4092 32.1292 17.9641 32.3136 17.5 32.3136C17.0359 32.3136 16.5908 32.1292 16.2626 31.801C15.9344 31.4728 15.75 31.0277 15.75 30.5636V22.6886C15.75 22.2245 15.9344 21.7793 16.2626 21.4511C16.5908 21.123 17.0359 20.9386 17.5 20.9386C17.9641 20.9386 18.4092 21.123 18.7374 21.4511C19.0656 21.7793 19.25 22.2245 19.25 22.6886V30.5636Z" fill="#4FAD5B"/>
<path d="M5.25 11.3134V24.4375C5.25 24.9016 5.43437 25.3468 5.76256 25.6749C6.09075 26.0031 6.53587 26.1875 7 26.1875H21C21.4641 26.1875 21.9093 26.0031 22.2374 25.6749C22.5656 25.3468 22.75 24.9016 22.75 24.4375V11.3134H5.25ZM14 2.5625C8.75 2.5625 5.55187 5.75187 5.25 9.5625H22.75C22.4473 5.75187 19.25 2.5625 14 2.5625ZM10.5 7.46075C10.2679 7.46075 10.0454 7.36856 9.88128 7.20447C9.71719 7.04037 9.625 6.81781 9.625 6.58575C9.625 6.35369 9.71719 6.13113 9.88128 5.96703C10.0454 5.80294 10.2679 5.71075 10.5 5.71075C10.7321 5.71075 10.9546 5.80294 11.1187 5.96703C11.2828 6.13113 11.375 6.35369 11.375 6.58575C11.375 6.81781 11.2828 7.04037 11.1187 7.20447C10.9546 7.36856 10.7321 7.46075 10.5 7.46075ZM17.5 7.46075C17.2679 7.46075 17.0454 7.36856 16.8813 7.20447C16.7172 7.04037 16.625 6.81781 16.625 6.58575C16.625 6.35369 16.7172 6.13113 16.8813 5.96703C17.0454 5.80294 17.2679 5.71075 17.5 5.71075C17.7321 5.71075 17.9546 5.80294 18.1187 5.96703C18.2828 6.13113 18.375 6.35369 18.375 6.58575C18.375 6.81781 18.2828 7.04037 18.1187 7.20447C17.9546 7.36856 17.7321 7.46075 17.5 7.46075Z" fill="#4FAD5B"/>
<path d="M19.25 1.6875L17.7922 3.87412M8.75 1.6875L9.91638 3.50925" stroke="#4FAD5B" stroke-width="2" stroke-linecap="round"/>
</svg>
