<svg width="33" height="33" viewBox="0 0 33 33" fill="none" xmlns="http://www.w3.org/2000/svg">
<path d="M16.418 28.6666C23.0454 28.6666 28.418 23.294 28.418 16.6666C28.418 10.0392 23.0454 4.66663 16.418 4.66663C9.79055 4.66663 4.41797 10.0392 4.41797 16.6666C4.41797 23.294 9.79055 28.6666 16.418 28.6666Z" stroke="#4A4754" stroke-width="1.5" stroke-linecap="round" stroke-linejoin="round"/>
<path d="M16.418 20.6666C19.1794 20.6666 21.418 18.4281 21.418 15.6666C21.418 12.9052 19.1794 10.6666 16.418 10.6666C13.6565 10.6666 11.418 12.9052 11.418 15.6666C11.418 18.4281 13.6565 20.6666 16.418 20.6666Z" stroke="#4A4754" stroke-width="1.5" stroke-linecap="round" stroke-linejoin="round"/>
<path d="M8.39453 25.5914C9.14692 24.1094 10.295 22.8648 11.7115 21.9953C13.1279 21.1259 14.7575 20.6656 16.4195 20.6656C18.0816 20.6656 19.7111 21.1259 21.1276 21.9953C22.5441 22.8648 23.6921 24.1094 24.4445 25.5914" stroke="#4A4754" stroke-width="1.5" stroke-linecap="round" stroke-linejoin="round"/>
</svg>
