<svg width="14" height="14" viewBox="0 0 14 14" fill="none" xmlns="http://www.w3.org/2000/svg">
<path d="M3.5 4.2C3.115 4.2 2.78553 4.0628 2.5116 3.7884C2.2372 3.51447 2.1 3.185 2.1 2.8V1.4C2.1 1.015 2.2372 0.6853 2.5116 0.4109C2.78553 0.136967 3.115 0 3.5 0H10.5C10.885 0 11.2147 0.136967 11.4891 0.4109C11.763 0.6853 11.9 1.015 11.9 1.4V2.8C11.9 3.185 11.763 3.51447 11.4891 3.7884C11.2147 4.0628 10.885 4.2 10.5 4.2H3.5ZM3.5 2.8H10.5V1.4H3.5V2.8ZM1.4 14C1.015 14 0.685533 13.863 0.4116 13.5891C0.1372 13.3147 0 12.985 0 12.6V11.9H14V12.6C14 12.985 13.863 13.3147 13.5891 13.5891C13.3147 13.863 12.985 14 12.6 14H1.4ZM0 11.2L2.4325 5.7225C2.54917 5.46583 2.72417 5.26447 2.9575 5.1184C3.19083 4.9728 3.44167 4.9 3.71 4.9H10.29C10.5583 4.9 10.8092 4.9728 11.0425 5.1184C11.2758 5.26447 11.4508 5.46583 11.5675 5.7225L14 11.2H0ZM4.55 9.8H5.25C5.34333 9.8 5.425 9.765 5.495 9.695C5.565 9.625 5.6 9.54333 5.6 9.45C5.6 9.35667 5.565 9.275 5.495 9.205C5.425 9.135 5.34333 9.1 5.25 9.1H4.55C4.45667 9.1 4.375 9.135 4.305 9.205C4.235 9.275 4.2 9.35667 4.2 9.45C4.2 9.54333 4.235 9.625 4.305 9.695C4.375 9.765 4.45667 9.8 4.55 9.8ZM4.55 8.4H5.25C5.34333 8.4 5.425 8.365 5.495 8.295C5.565 8.225 5.6 8.14333 5.6 8.05C5.6 7.95667 5.565 7.875 5.495 7.805C5.425 7.735 5.34333 7.7 5.25 7.7H4.55C4.45667 7.7 4.375 7.735 4.305 7.805C4.235 7.875 4.2 7.95667 4.2 8.05C4.2 8.14333 4.235 8.225 4.305 8.295C4.375 8.365 4.45667 8.4 4.55 8.4ZM4.55 7H5.25C5.34333 7 5.425 6.965 5.495 6.895C5.565 6.825 5.6 6.74333 5.6 6.65C5.6 6.55667 5.565 6.475 5.495 6.405C5.425 6.335 5.34333 6.3 5.25 6.3H4.55C4.45667 6.3 4.375 6.335 4.305 6.405C4.235 6.475 4.2 6.55667 4.2 6.65C4.2 6.74333 4.235 6.825 4.305 6.895C4.375 6.965 4.45667 7 4.55 7ZM6.65 9.8H7.35C7.44333 9.8 7.525 9.765 7.595 9.695C7.665 9.625 7.7 9.54333 7.7 9.45C7.7 9.35667 7.665 9.275 7.595 9.205C7.525 9.135 7.44333 9.1 7.35 9.1H6.65C6.55667 9.1 6.475 9.135 6.405 9.205C6.335 9.275 6.3 9.35667 6.3 9.45C6.3 9.54333 6.335 9.625 6.405 9.695C6.475 9.765 6.55667 9.8 6.65 9.8ZM6.65 8.4H7.35C7.44333 8.4 7.525 8.365 7.595 8.295C7.665 8.225 7.7 8.14333 7.7 8.05C7.7 7.95667 7.665 7.875 7.595 7.805C7.525 7.735 7.44333 7.7 7.35 7.7H6.65C6.55667 7.7 6.475 7.735 6.405 7.805C6.335 7.875 6.3 7.95667 6.3 8.05C6.3 8.14333 6.335 8.225 6.405 8.295C6.475 8.365 6.55667 8.4 6.65 8.4ZM6.65 7H7.35C7.44333 7 7.525 6.965 7.595 6.895C7.665 6.825 7.7 6.74333 7.7 6.65C7.7 6.55667 7.665 6.475 7.595 6.405C7.525 6.335 7.44333 6.3 7.35 6.3H6.65C6.55667 6.3 6.475 6.335 6.405 6.405C6.335 6.475 6.3 6.55667 6.3 6.65C6.3 6.74333 6.335 6.825 6.405 6.895C6.475 6.965 6.55667 7 6.65 7ZM8.75 9.8H9.45C9.54333 9.8 9.625 9.765 9.695 9.695C9.765 9.625 9.8 9.54333 9.8 9.45C9.8 9.35667 9.765 9.275 9.695 9.205C9.625 9.135 9.54333 9.1 9.45 9.1H8.75C8.65667 9.1 8.575 9.135 8.505 9.205C8.435 9.275 8.4 9.35667 8.4 9.45C8.4 9.54333 8.435 9.625 8.505 9.695C8.575 9.765 8.65667 9.8 8.75 9.8ZM8.75 8.4H9.45C9.54333 8.4 9.625 8.365 9.695 8.295C9.765 8.225 9.8 8.14333 9.8 8.05C9.8 7.95667 9.765 7.875 9.695 7.805C9.625 7.735 9.54333 7.7 9.45 7.7H8.75C8.65667 7.7 8.575 7.735 8.505 7.805C8.435 7.875 8.4 7.95667 8.4 8.05C8.4 8.14333 8.435 8.225 8.505 8.295C8.575 8.365 8.65667 8.4 8.75 8.4ZM8.75 7H9.45C9.54333 7 9.625 6.965 9.695 6.895C9.765 6.825 9.8 6.74333 9.8 6.65C9.8 6.55667 9.765 6.475 9.695 6.405C9.625 6.335 9.54333 6.3 9.45 6.3H8.75C8.65667 6.3 8.575 6.335 8.505 6.405C8.435 6.475 8.4 6.55667 8.4 6.65C8.4 6.74333 8.435 6.825 8.505 6.895C8.575 6.965 8.65667 7 8.75 7Z" fill="white"/>
</svg>
