<svg width="16" height="14" viewBox="0 0 16 14" fill="none" xmlns="http://www.w3.org/2000/svg">
<path d="M15.6353 0.250821C15.4899 0.128831 15.3129 0.0474361 15.1234 0.0153494C14.934 -0.0167373 14.739 0.00169201 14.5595 0.0686647L0.67271 5.35119C0.459637 5.43115 0.279192 5.57605 0.158601 5.76405C0.0380104 5.95204 -0.0161827 6.17292 0.00419887 6.39337C0.0245804 6.61381 0.118431 6.82185 0.271589 6.9861C0.424747 7.15035 0.628904 7.26189 0.853254 7.30391L4.50174 8.01067V12.397C4.50198 12.598 4.56352 12.7944 4.67862 12.9616C4.79371 13.1288 4.95725 13.2594 5.14868 13.3369C5.27777 13.3879 5.41553 13.415 5.55491 13.4171C5.69334 13.4179 5.83054 13.3919 5.95844 13.3406C6.08633 13.2893 6.20235 13.2137 6.29965 13.1183L8.35333 11.1292L11.4226 13.7449C11.6127 13.9101 11.8593 14.0009 12.1147 14C12.2247 14.0009 12.3341 13.9836 12.4381 13.949C12.6118 13.8955 12.7679 13.7986 12.8908 13.6682C13.0136 13.5377 13.0987 13.3782 13.1377 13.2058L15.9738 1.24904C16.0162 1.06856 16.007 0.880312 15.9474 0.704467C15.8878 0.528623 15.7799 0.371807 15.6353 0.250821ZM0.913435 6.31298C0.908174 6.28226 0.914368 6.25074 0.930906 6.22404C0.947445 6.19734 0.97325 6.17721 1.00371 6.16725L12.6262 1.7445L4.84778 7.18733L1.0338 6.44413C1.00055 6.44053 0.969859 6.42514 0.947635 6.40092C0.92541 6.37671 0.913228 6.34538 0.913435 6.31298ZM5.66022 12.499C5.63936 12.5202 5.61211 12.5344 5.58237 12.5397C5.55263 12.5449 5.52195 12.5409 5.49473 12.5281C5.46828 12.517 5.44571 12.4987 5.4297 12.4754C5.4137 12.4522 5.40493 12.4249 5.40445 12.397V8.61543L7.66877 10.5536L5.66022 12.499ZM12.2651 13.009C12.26 13.0343 12.248 13.0578 12.2304 13.0771C12.2129 13.0965 12.1903 13.111 12.1651 13.1191C12.1398 13.1273 12.1128 13.1288 12.0868 13.1235C12.0608 13.1183 12.0366 13.1064 12.0169 13.0892L5.67527 7.68279L15.0786 1.1106L12.2651 13.009Z" fill="white"/>
</svg>
