<svg width="17" height="17" viewBox="0 0 17 17" fill="none" xmlns="http://www.w3.org/2000/svg">
<path d="M7.39432 1.4441C7.7331 0.401446 9.20818 0.401447 9.54696 1.4441L10.7574 5.16944C10.9089 5.63573 11.3434 5.95143 11.8337 5.95143H15.7508C16.8471 5.95143 17.3029 7.35431 16.416 7.9987L13.247 10.3011C12.8504 10.5893 12.6844 11.1001 12.8359 11.5664L14.0463 15.2917C14.3851 16.3344 13.1917 17.2014 12.3048 16.557L9.13584 14.2546C8.73919 13.9664 8.20209 13.9664 7.80544 14.2546L4.63647 16.557C3.74954 17.2014 2.55618 16.3344 2.89496 15.2917L4.1054 11.5664C4.2569 11.1001 4.09093 10.5893 3.69428 10.3011L0.525315 7.9987C-0.361617 7.35431 0.094206 5.95143 1.19052 5.95143H5.10757C5.59786 5.95143 6.03238 5.63573 6.18389 5.16944L7.39432 1.4441Z" fill="#F59E0B"/>
</svg>
