<svg width="33" height="33" viewBox="0 0 33 33" fill="none" xmlns="http://www.w3.org/2000/svg">
<path d="M6.41797 18.1166V26.6666C6.41797 26.9318 6.52333 27.1861 6.71086 27.3737C6.8984 27.5612 7.15275 27.6666 7.41797 27.6666H25.418C25.6832 27.6666 25.9375 27.5612 26.1251 27.3737C26.3126 27.1861 26.418 26.9318 26.418 26.6666V18.1166" stroke="#4A4754" stroke-width="1.5" stroke-linecap="round" stroke-linejoin="round"/>
<path d="M7.16797 5.66663H25.668C25.8849 5.66841 26.0955 5.73983 26.2688 5.87035C26.4421 6.00088 26.5689 6.18361 26.6305 6.39163L28.418 12.6666H4.41797L6.20547 6.39163C6.26706 6.18361 6.39384 6.00088 6.56712 5.87035C6.74041 5.73983 6.95103 5.66841 7.16797 5.66663V5.66663Z" stroke="#4A4754" stroke-width="1.5" stroke-linecap="round" stroke-linejoin="round"/>
<path d="M12.418 12.6666V14.6666C12.418 15.7275 11.9965 16.7449 11.2464 17.4951C10.4963 18.2452 9.47883 18.6666 8.41797 18.6666C7.3571 18.6666 6.33969 18.2452 5.58954 17.4951C4.8394 16.7449 4.41797 15.7275 4.41797 14.6666V12.6666" stroke="#4A4754" stroke-width="1.5" stroke-linecap="round" stroke-linejoin="round"/>
<path d="M20.418 12.6666V14.6666C20.418 15.7275 19.9965 16.7449 19.2464 17.4951C18.4962 18.2452 17.4788 18.6666 16.418 18.6666C15.3571 18.6666 14.3397 18.2452 13.5895 17.4951C12.8394 16.7449 12.418 15.7275 12.418 14.6666V12.6666" stroke="#4A4754" stroke-width="1.5" stroke-linecap="round" stroke-linejoin="round"/>
<path d="M28.418 12.6666V14.6666C28.418 15.7275 27.9965 16.7449 27.2464 17.4951C26.4962 18.2452 25.4788 18.6666 24.418 18.6666C23.3571 18.6666 22.3397 18.2452 21.5895 17.4951C20.8394 16.7449 20.418 15.7275 20.418 14.6666V12.6666" stroke="#4A4754" stroke-width="1.5" stroke-linecap="round" stroke-linejoin="round"/>
</svg>
