<svg width="22" height="20" viewBox="0 0 22 20" fill="none" xmlns="http://www.w3.org/2000/svg">
<path d="M4.43945 10.9062V16.25C4.43945 16.4158 4.50862 16.5747 4.63175 16.6919C4.75487 16.8092 4.92187 16.875 5.09599 16.875H16.9137C17.0878 16.875 17.2548 16.8092 17.3779 16.6919C17.501 16.5747 17.5702 16.4158 17.5702 16.25V10.9062" stroke="white" stroke-width="1.5" stroke-linecap="round" stroke-linejoin="round"/>
<path d="M4.93145 3.125H17.0774C17.2198 3.12612 17.3581 3.17075 17.4719 3.25233C17.5856 3.33391 17.6689 3.44812 17.7093 3.57812L18.8829 7.5H3.12598L4.29954 3.57812C4.33997 3.44812 4.42321 3.33391 4.53698 3.25233C4.65074 3.17075 4.78903 3.12612 4.93145 3.125V3.125Z" stroke="white" stroke-width="1.5" stroke-linecap="round" stroke-linejoin="round"/>
<path d="M8.37827 7.5V8.75C8.37827 9.41304 8.10159 10.0489 7.60909 10.5178C7.11659 10.9866 6.44862 11.25 5.75212 11.25C5.05563 11.25 4.38766 10.9866 3.89516 10.5178C3.40266 10.0489 3.12598 9.41304 3.12598 8.75V7.5" stroke="white" stroke-width="1.5" stroke-linecap="round" stroke-linejoin="round"/>
<path d="M13.6312 7.5V8.75C13.6312 9.41304 13.3545 10.0489 12.862 10.5178C12.3695 10.9866 11.7016 11.25 11.0051 11.25C10.3086 11.25 9.64058 10.9866 9.14809 10.5178C8.65559 10.0489 8.37891 9.41304 8.37891 8.75V7.5" stroke="white" stroke-width="1.5" stroke-linecap="round" stroke-linejoin="round"/>
<path d="M18.8832 7.5V8.75C18.8832 9.41304 18.6065 10.0489 18.114 10.5178C17.6215 10.9866 16.9535 11.25 16.257 11.25C15.5605 11.25 14.8925 10.9866 14.4 10.5178C13.9075 10.0489 13.6309 9.41304 13.6309 8.75V7.5" stroke="white" stroke-width="1.5" stroke-linecap="round" stroke-linejoin="round"/>
</svg>
