<svg width="16" height="14" viewBox="0 0 16 14" fill="none" xmlns="http://www.w3.org/2000/svg">
<path d="M16 1.87016C15.4116 2.13075 14.7795 2.30682 14.115 2.3864C14.8007 1.97636 15.3136 1.33101 15.5582 0.570763C14.914 0.95318 14.209 1.22236 13.4738 1.3666C12.9794 0.838999 12.3245 0.489296 11.6109 0.371785C10.8973 0.254274 10.1648 0.37553 9.52717 0.716727C8.88955 1.05792 8.38247 1.59997 8.08467 2.25872C7.78686 2.91746 7.71499 3.65604 7.88021 4.3598C6.57496 4.2943 5.29807 3.95522 4.13242 3.36458C2.96677 2.77394 1.93841 1.94493 1.11407 0.931355C0.832203 1.41731 0.670131 1.98073 0.670131 2.58078C0.669817 3.12096 0.802912 3.65287 1.05761 4.12931C1.3123 4.60575 1.68073 5.01199 2.13019 5.31199C1.60893 5.29541 1.09918 5.15464 0.643354 4.90139V4.94365C0.643302 5.70127 0.905511 6.43558 1.38549 7.02198C1.86547 7.60838 2.53365 8.01074 3.27667 8.16081C2.79312 8.2916 2.28615 8.31087 1.79406 8.21715C2.0037 8.86904 2.41205 9.4391 2.96194 9.84751C3.51184 10.2559 4.17575 10.4822 4.86074 10.4948C3.69794 11.4071 2.26188 11.902 0.783581 11.8998C0.521717 11.8999 0.260073 11.8846 0 11.8541C1.50056 12.8183 3.24731 13.3301 5.03127 13.3281C11.0702 13.3281 14.3715 8.32913 14.3715 3.99357C14.3715 3.85272 14.368 3.71045 14.3617 3.56959C15.0038 3.10545 15.5581 2.5307 15.9986 1.87228L16 1.87016Z" fill="#868B9D"/>
</svg>
