<svg width="5" height="18" viewBox="0 0 5 18" fill="none" xmlns="http://www.w3.org/2000/svg">
<path d="M2.5 15.5777L2.5 15.5683M2.5 8.99878L2.5 8.98938M2.5 2.41983L2.5 2.41043M2.5 14.6379C3.05228 14.6379 3.5 15.0587 3.5 15.5777C3.5 16.0968 3.05228 16.5176 2.5 16.5176C1.94772 16.5176 1.5 16.0968 1.5 15.5777C1.5 15.0587 1.94772 14.6379 2.5 14.6379ZM2.5 8.05893C3.05228 8.05893 3.5 8.47972 3.5 8.99878C3.5 9.51785 3.05228 9.93863 2.5 9.93863C1.94772 9.93863 1.5 9.51785 1.5 8.99878C1.5 8.47972 1.94772 8.05893 2.5 8.05893ZM2.5 1.47998C3.05228 1.47998 3.5 1.90077 3.5 2.41983C3.5 2.9389 3.05228 3.35968 2.5 3.35968C1.94772 3.35968 1.5 2.9389 1.5 2.41983C1.5 1.90077 1.94772 1.47998 2.5 1.47998Z" stroke="#96949C" stroke-width="2" stroke-linecap="round" stroke-linejoin="round"/>
</svg>
